<?xml version="1.0" standalone="yes"?>
<svg xmlns="http://www.w3.org/2000/svg" width="298" height="167">
<path style="fill:#feffff; stroke:none;" d="M0 0L0 167L298 167L298 0L0 0z"/>
<path style="fill:#a5bdd3; stroke:none;" d="M244 6L244 7L251 7L244 6M241 7L242 8L241 7z"/>
<path style="fill:#3177b4; stroke:none;" d="M224 17L224 18C228.958 20.2537 229.937 22.6984 230 28C203.229 28 175.473 35.9614 161 61C168.277 57.9188 173.388 51.3511 180 47.0895C195.74 36.9444 216.064 32.0767 234 39.2569C246.302 44.1817 257.554 54.9938 261.073 68C266.638 88.5725 249.333 108.064 229 108.961C207.939 109.89 190.694 96.7046 175 84.1991C145.899 61.011 113.273 24.3334 73 24L73 25C105.402 35.9614 128.446 58.2563 153 81.0895C170.479 97.3431 190.574 117.27 215 121.905C250.798 128.698 283.611 100.039 272.56 63C269.702 53.4194 263.945 45.9643 257 39C270.387 32.4535 266.328 10.1071 252 7.34027C239.375 4.90227 234.937 16.6449 224 17z"/>
<path style="fill:#a5bdd3; stroke:none;" d="M253 7L254 8L253 7M39.6667 8.33333L40.3333 8.66667L39.6667 8.33333z"/>
<path style="fill:#3177b4; stroke:none;" d="M127 93C119.155 97.0643 112.862 103.817 105 108.135C88.6639 117.108 66.8938 119.275 50 110.626C19.0188 94.7646 21.4293 47.9295 59 44.1705C81.4551 41.9239 99.4886 55.9712 116 69.1998C145.264 92.6453 177.291 128.663 218 129L218 128C177.208 116.339 150.757 81.5479 119 56.0008C102.959 43.096 84.4712 29.4432 63 29L67 20C61.2546 17.2922 57.7845 12.0527 51.9992 9.53317C41.4321 4.93103 29.2535 11.7384 27.3295 23C26.3706 28.6128 31.7965 35.3038 29.9784 40C27.9994 45.1117 22.2635 48.9819 19.6335 54C12.4383 67.7283 13.7687 85.7385 21.4645 99C38.7595 128.803 74.2659 130.058 102 115.742C111.643 110.764 122.928 103.512 127 93z"/>
<path style="fill:#a5bdd3; stroke:none;" d="M49.6667 8.33333L50.3333 8.66667L49.6667 8.33333M239 8L240 9L239 8M256 8L257 9L256 8M37 9L38 10L37 9M52 9L53 10L52 9M237 9L238 10L237 9M257 9L258 10L257 9M35 10L36 11L35 10M54 10L55 11L54 10M55 11L56 12L55 11M32 12L33 13L32 12M31 13L32 14L31 13M232 14L233 15L232 14M262 14L263 15L262 14M59 15L60 16L59 15M263 15L264 16L263 15M29 16L30 17L29 16M60 16L61 17L60 16M228 16L228 17L231 17L228 16M223 17L224 18L223 17M264.333 17.6667L264.667 18.3333L264.333 17.6667M28 18L29 19L28 18M61 18L62 19L61 18M225 18L226 19L225 18M67 19L68 20L67 19M227 19L228 20L227 19M27.3333 20.6667L27.6667 21.3333L27.3333 20.6667M66 20L67 21L66 20M229 20L229 27L214 27L214 28L230 28L229 20M64 21L65 22L64 21M265 21L265 28L266 28L265 21M72 23L72 24L78 24L72 23M80 24L80 25L83 25L80 24M74 25L75 26L74 25M85.6667 25.3333L86.3333 25.6667L85.6667 25.3333M77 26L78 27L77 26M89 26L90 27L89 26M79 27L80 28L79 27M92.6667 27.3333L93.3333 27.6667L92.6667 27.3333M82 28L83 29L82 28M95 28L96 29L95 28M208 28L208 29L211 29L208 28M69 29L69 30L72 30L69 29M84.6667 29.3333L85.3333 29.6667L84.6667 29.3333M98 29L99 30L98 29M204.667 29.3333L205.333 29.6667L204.667 29.3333M27.3333 30.6667L27.6667 31.3333L27.3333 30.6667M74.6667 30.3333L75.3333 30.6667L74.6667 30.3333M87 30L88 31L87 30M100 30L101 31L100 30M201 30L202 31L201 30M264 30L265 31L264 30M78 31L79 32L78 31M89 31L90 32L89 31M103 31L104 32L103 31M198 31L199 32L198 31M81 32L82 33L81 32M91 32L92 33L91 32M105 32L106 33L105 32M195.667 32.3333L196.333 32.6667L195.667 32.3333M28 33L29 34L28 33M83.6667 33.3333L84.3333 33.6667L83.6667 33.3333M93 33L94 34L93 33M107 33L108 34L107 33M193 33L194 34L193 33M86 34L87 35L86 34M95 34L96 35L95 34M109 34L110 35L109 34M191 34L192 35L191 34M262 34L263 35L262 34M29 35L30 36L29 35M88 35L89 36L88 35M97 35L98 36L97 35M111 35L112 36L111 35M189 35L190 36L189 35M30 36L31 37L30 36M90 36L91 37L90 36M99 36L100 37L99 36M112 36L113 37L112 36M187 36L188 37L187 36M206 36L206 37L209 37L206 36M221 36L221 37L225 37L221 36M92 37L93 38L92 37M101 37L102 38L101 37M114 37L115 38L114 37M201.667 37.3333L202.333 37.6667L201.667 37.3333M228 37L229 38L228 37M94 38L95 39L94 38M116 38L117 39L116 38M184 38L185 39L184 38M197.667 38.3333L198.333 38.6667L197.667 38.3333M231.667 38.3333L232.333 38.6667L231.667 38.3333M95 39L96 40L95 39M104 39L105 40L104 39M182 39L183 40L182 39M195 39L196 40L195 39M234 39L235 40L234 39M257 39L258 40L257 39M30 40L31 41L30 40M97 40L98 41L97 40M119 40L120 41L119 40M181 40L182 41L181 40M192 40L193 41L192 40M236.667 40.3333L237.333 40.6667L236.667 40.3333M258 40L259 41L258 40M29 41L30 42L29 41M107 41L108 42L107 41M190 41L191 42L190 41M259 41L260 42L259 41M28 42L29 43L28 42M100 42L101 43L100 42M122 42L123 43L122 42M178 42L179 43L178 42M187 42L188 43L187 42M240 42L241 43L240 42M260 42L261 43L260 42M27 43L28 44L27 43M102 43L103 44L102 43M110 43L111 44L110 43M177 43L178 44L177 43M186 43L187 44L186 43M242 43L243 44L242 43M261 43L262 44L261 43M26 44L27 45L26 44M56 44L56 45L60 45L56 44M68 44L68 45L72 45L68 44M103 44L104 45L103 44M111 44L112 45L111 44M125 44L126 45L125 44M184 44L185 45L184 44M262 44L263 45L262 44M25 45L26 46L25 45M51.6667 45.3333L52.3333 45.6667L51.6667 45.3333M75.6667 45.3333L76.3333 45.6667L75.6667 45.3333M126 45L127 46L126 45M182 45L183 46L182 45M245 45L246 46L245 45M263 45L264 46L263 45M24 46L25 47L24 46M48 46L49 47L48 46M79.6667 46.3333L80.3333 46.6667L79.6667 46.3333M106 46L107 47L106 46M114 46L115 47L114 46M128 46L129 47L128 46M173 46L174 47L173 46M180 46L181 47L180 46M246 46L247 47L246 46M23 47L24 48L23 47M46 47L47 48L46 47M82 47L83 48L82 47M115 47L116 48L115 47M129 47L130 48L129 47M172 47L173 48L172 47M179 47L180 48L179 47M44 48L45 49L44 48M85 48L86 49L85 48M109 48L110 49L109 48M171 48L172 49L171 48M177 48L178 49L177 48M265 48L266 49L265 48M22 49L23 50L22 49M42 49L43 50L42 49M87 49L88 50L87 49M110 49L111 50L110 49M118 49L119 50L118 49M132 49L133 50L132 49M170 49L171 50L170 49M176 49L177 50L176 49M266 49L267 50L266 49M21 50L22 51L21 50M40 50L41 51L40 50M89 50L90 51L89 50M119 50L120 51L119 50M133 50L134 51L133 50M169 50L170 51L169 50M39 51L40 52L39 51M91 51L92 52L91 51M113 51L114 52L113 51M120 51L121 52L120 51M168 51L169 52L168 51M173 51L174 52L173 51M267 51L268 52L267 51M20 52L21 53L20 52M38 52L39 53L38 52M93 52L94 53L93 52M114 52L115 53L114 52M167 52L168 53L167 52M172 52L173 53L172 52M94 53L95 54L94 53M115 53L116 54L115 53M137 53L138 54L137 53M166 53L167 54L166 53M171 53L172 54L171 53M253 53L254 54L253 53M268 53L269 54L268 53M96 54L97 55L96 54M124 54L125 55L124 54M138 54L139 55L138 54M165 54L166 55L165 54M170 54L171 55L170 54M254 54L255 55L254 54M35 55L36 56L35 55M118 55L119 56L118 55M125 55L126 56L125 55M255 55L256 56L255 55M269 55L270 56L269 55M18 56L19 57L18 56M34 56L35 57L34 56M99 56L100 57L99 56M119 56L120 57L119 56M126 56L127 57L126 56M141 56L142 57L141 56M33 57L34 58L33 57M100 57L101 58L100 57M120 57L121 58L120 57M127 57L128 58L127 57M142 57L143 58L142 57M256 57L257 58L256 57M270 57L271 58L270 57M17 58L18 59L17 58M102 58L103 59L102 58M128 58L129 59L128 58M143 58L144 59L143 58M162 58L163 59L162 58M165 58L166 59L165 58M103 59L104 60L103 59M161 59L162 60L161 59M164 59L165 60L164 59M257 59L258 60L257 59M271 59L272 60L271 59M31 60L32 61L31 60M124 60L125 61L124 60M16 61L17 62L16 61M106 61L107 62L106 61M125 61L126 62L125 61M147 61L148 62L147 61M161 61L162 62L161 61M258 61L259 62L258 61M30 62L31 63L30 62M107 62L108 63L107 62M126 62L127 63L126 62M133 62L134 63L133 62M148 62L149 63L148 62M272 62L273 63L272 62M127 63L128 64L127 63M134 63L135 64L134 63M149 63L150 64L149 63M259 63L260 64L259 63M15 64L15 67L16 67L15 64M110 64L111 65L110 64M135 64L136 65L135 64M29 65L30 66L29 65M111 65L112 66L111 65M136 65L137 66L136 65M260.333 65.6667L260.667 66.3333L260.333 65.6667M273.333 65.6667L273.667 66.3333L273.333 65.6667M137 66L138 67L137 66M153 66L154 67L153 66M28 67L28 70L29 70L28 67M132 67L133 68L132 67M138 67L139 68L138 67M154 67L155 68L154 67M115 68L116 69L115 68M133 68L134 69L133 68M139 68L140 69L139 68M155 68L156 69L155 68M116 69L117 70L116 69M134 69L135 70L134 69M140 69L141 70L140 69M261 69L261 72L262 72L261 69M274 69L274 73L275 73L274 69M117 70L118 71L117 70M135 70L136 71L135 70M141 70L142 71L141 70M136 71L137 72L136 71M159 71L160 72L159 71M14 72L14 76L15 76L14 72M120 72L121 73L120 72M137 72L138 73L137 72M160 72L161 73L160 72M121 73L122 74L121 73M138 73L139 74L138 73M161 73L162 74L161 73M27 74L27 77L28 77L27 74M122 74L123 75L122 74M139 74L140 75L139 74M165 76L166 77L165 76M126 77L127 78L126 77M166 77L167 78L166 77M127 78L128 79L127 78M150 78L151 79L150 78M167 78L168 79L167 78M128 79L129 80L128 79M151 79L152 80L151 79M129 80L130 81L129 80M146 80L147 81L146 80M152 80L153 81L152 80M170 80L171 81L170 80M15 81L15 84L16 84L15 81M147 81L148 82L147 81M153 81L154 82L153 81M171 81L172 82L171 81M261.333 81.6667L261.667 82.3333L261.333 81.6667M28.3333 82.6667L28.6667 83.3333L28.3333 82.6667M148 82L149 83L148 82M154 82L155 83L154 82M172 82L173 83L172 82M133 83L134 84L133 83M149 83L150 84L149 83M155 83L156 84L155 83M274 83L274 86L275 86L274 83M134 84L135 85L134 84M150 84L151 85L150 84M156 84L157 85L156 84M175 84L176 85L175 84M135 85L136 86L135 85M151 85L152 86L151 85M157 85L158 86L157 85M176 85L177 86L176 85M260.333 85.6667L260.667 86.3333L260.333 85.6667M16.3333 86.6667L16.6667 87.3333L16.3333 86.6667M29.3333 86.6667L29.6667 87.3333L29.3333 86.6667M136 86L137 87L136 86M152 86L153 87L152 86M177 86L178 87L177 86M153 87L154 88L153 87M180 88L181 89L180 88M259 88L260 89L259 88M30 89L31 90L30 89M140 89L141 90L140 89M162 89L163 90L162 89M181 89L182 90L181 89M273 89L274 90L273 89M17 90L18 91L17 90M141 90L142 91L141 90M163 90L164 91L163 90M31 91L32 92L31 91M142 91L143 92L142 91M158 91L159 92L158 91M164 91L165 92L164 91M184 91L185 92L184 91M18.3333 92.6667L18.6667 93.3333L18.3333 92.6667M127.333 92.6667L127.667 93.3333L127.333 92.6667M143 92L144 93L143 92M159 92L160 93L159 92M165 92L166 93L165 92M185 92L186 93L185 92M257 92L258 93L257 92M272 92L273 93L272 92M32 93L33 94L32 93M125 93L126 94L125 93M160 93L161 94L160 93M166 93L167 94L166 93M161 94L162 95L161 94M188 94L189 95L188 94M256 94L257 95L256 94M19 95L20 96L19 95M33 95L34 96L33 95M126 95L127 96L126 95M147 95L148 96L147 95M169 95L170 96L169 95M255 95L256 96L255 95M271 95L272 96L271 95M125 96L126 97L125 96M148 96L149 97L148 96M170 96L171 97L170 96M191 96L192 97L191 96M20 97L21 98L20 97M120 97L121 98L120 97M149 97L150 98L149 97M171 97L172 98L171 97M270 97L271 98L270 97M35 98L36 99L35 98M119 98L120 99L119 98M166 98L167 99L166 98M172 98L173 99L172 98M194 98L195 99L194 98M118 99L119 100L118 99M123 99L124 100L123 99M152 99L153 100L152 99M167 99L168 100L167 99M269 99L270 100L269 99M22 100L23 101L22 100M122 100L123 101L122 100M153 100L154 101L153 100M168 100L169 101L168 100M197 100L198 101L197 100M115 101L116 102L115 101M121 101L122 102L121 101M176 101L177 102L176 101M199 101L200 102L199 101M268 101L269 102L268 101M23 102L24 103L23 102M114 102L115 103L114 102M120 102L121 103L120 102M156 102L157 103L156 102M171 102L172 103L171 102M177 102L178 103L177 102M201 102L202 103L201 102M248 102L249 103L248 102M267 102L268 103L267 102M24 103L25 104L24 103M119 103L120 104L119 103M157 103L158 104L157 103M172 103L173 104L172 103M203 103L204 104L203 103M111 104L112 105L111 104M118 104L119 105L118 104M173 104L174 105L173 104M180 104L181 105L180 104M205 104L206 105L205 104M245 104L246 105L245 104M266 104L267 105L266 104M109 105L110 106L109 105M117 105L118 106L117 105M160 105L161 106L160 105M181 105L182 106L181 105M207 105L208 106L207 105M243 105L244 106L243 105M265 105L266 106L265 105M26 106L27 107L26 106M43 106L44 107L43 106M116 106L117 107L116 106M161 106L162 107L161 106M176 106L177 107L176 106M210 106L211 107L210 106M240.667 106.333L241.333 106.667L240.667 106.333M264 106L265 107L264 106M27 107L28 108L27 107M44 107L45 108L44 107M106 107L107 108L106 107M177 107L178 108L177 107M184 107L185 108L184 107M213.667 107.333L214.333 107.667L213.667 107.333M237.667 107.333L238.333 107.667L237.667 107.333M28 108L29 109L28 108M46 108L47 109L46 108M104 108L105 109L104 108M113 108L114 109L113 108M164 108L165 109L164 108M185 108L186 109L185 108M218 108L218 109L222 109L218 108M231 108L231 109L234 109L231 108M29 109L30 110L29 109M47 109L48 110L47 109M102 109L103 110L102 109M112 109L113 110L112 109M180 109L181 110L180 109M187 109L188 110L187 109M30 110L31 111L30 110M49 110L50 111L49 110M99.6667 110.333L100.333 110.667L99.6667 110.333M167 110L168 111L167 110M181 110L182 111L181 110M188 110L189 111L188 110M31 111L32 112L31 111M51 111L52 112L51 111M97 111L98 112L97 111M109 111L110 112L109 111M169 111L170 112L169 111M183 111L184 112L183 111M190 111L191 112L190 111M259 111L260 112L259 111M32 112L33 113L32 112M54 112L55 113L54 112M94 112L95 113L94 112M107 112L108 113L107 112M170 112L171 113L170 112M184 112L185 113L184 112M191 112L192 113L191 112M258 112L259 113L258 112M33 113L34 114L33 113M56.6667 113.333L57.3333 113.667L56.6667 113.333M90.6667 113.333L91.3333 113.667L90.6667 113.333M106 113L107 114L106 113M172 113L173 114L172 113M186 113L187 114L186 113M193 113L194 114L193 113M257 113L258 114L257 113M60.6667 114.333L61.3333 114.667L60.6667 114.333M86.6667 114.333L87.3333 114.667L86.6667 114.333M104 114L105 115L104 114M187 114L188 115L187 114M195 114L196 115L195 114M36 115L37 116L36 115M65 115L65 116L68 116L65 115M79 115L79 116L83 116L79 115M102 115L103 116L102 115M175 115L176 116L175 115M189 115L190 116L189 115M197 115L198 116L197 115M254 115L255 116L254 115M37 116L38 117L37 116M100 116L101 117L100 116M177 116L178 117L177 116M191 116L192 117L191 116M199 116L200 117L199 116M252 116L253 117L252 116M39 117L40 118L39 117M98 117L99 118L98 117M179 117L180 118L179 117M193 117L194 118L193 117M201 117L202 118L201 117M251 117L252 118L251 117M96 118L97 119L96 118M181 118L182 119L181 118M194 118L195 119L194 118M203 118L204 119L203 118M249 118L250 119L249 118M42 119L43 120L42 119M94 119L95 120L94 119M183 119L184 120L183 119M196 119L197 120L196 119M205.667 119.333L206.333 119.667L205.667 119.333M246 119L247 120L246 119M44 120L45 121L44 120M92 120L93 121L92 120M185 120L186 121L185 120M199 120L200 121L199 120M208.667 120.333L209.333 120.667L208.667 120.333M243.667 120.333L244.333 120.667L243.667 120.333M47 121L48 122L47 121M89 121L90 122L89 121M187 121L188 122L187 121M201 121L202 122L201 121M212 121L213 122L212 121M240.667 121.333L241.333 121.667L240.667 121.333M49.6667 122.333L50.3333 122.667L49.6667 122.333M86 122L87 123L86 122M189 122L190 123L189 122M203 122L204 123L203 122M216 122L216 123L219 123L216 122M235 122L235 123L238 123L235 122M52.6667 123.333L53.3333 123.667L52.6667 123.333M82.6667 123.333L83.3333 123.667L82.6667 123.333M192 123L193 124L192 123M206 123L207 124L206 123M224 123L224 124L230 124L224 123M56 124L56 125L59 125L56 124M78.6667 124.333L79.3333 124.667L78.6667 124.333M195 124L196 125L195 124M208 124L209 125L208 124M62 125L62 126L74 126L62 125M198 125L199 126L198 125M211 125L212 126L211 125M201.667 126.333L202.333 126.667L201.667 126.333M213 126L214 127L213 126M205 127L206 128L205 127M215.667 127.333L216.333 127.667L215.667 127.333M208 128L208 129L211 129L208 128M218 128L213 129L213 130L218 128M89 130L90 131L89 130z"/>
<path style="fill:#50647b; stroke:none;" d="M90.6667 130.333L91.3333 130.667L90.6667 130.333z"/>
<path style="fill:#a5bdd3; stroke:none;" d="M92.6667 130.333L93.3333 130.667L92.6667 130.333M97 130L98 131L97 130M122.667 130.333L123.333 130.667L122.667 130.333z"/>
<path style="fill:#50647b; stroke:none;" d="M124 130L124 132L126 132L126 130L124 130z"/>
<path style="fill:#a5bdd3; stroke:none;" d="M126.667 130.333L127.333 130.667L126.667 130.333M228.667 130.333L229.333 130.667L228.667 130.333z"/>
<path style="fill:#50647b; stroke:none;" d="M230.667 130.333L231.333 130.667L230.667 130.333z"/>
<path style="fill:#a5bdd3; stroke:none;" d="M232.667 130.333L233.333 130.667L232.667 130.333M238 130L239 131L238 130M17 131L18 132L17 131z"/>
<path style="fill:#50647b; stroke:none;" d="M18 131L19 132L18 131z"/>
<path style="fill:#102b4b; stroke:none;" d="M19 131C21.7473 138.538 21.7473 146.462 19 154L25 154L23 143L39 154L39 153L30 142C34.5285 140.625 36.9347 135.249 31.8519 132.318C28.2327 130.231 23.0101 131 19 131z"/>
<path style="fill:#50647b; stroke:none;" d="M30 131L31 132L30 131z"/>
<path style="fill:#a5bdd3; stroke:none;" d="M31 131L32 132L31 131z"/>
<path style="fill:#50647b; stroke:none;" d="M51.6667 131.333L52.3333 131.667L51.6667 131.333z"/>
<path style="fill:#102b4b; stroke:none;" d="M53 131C54.439 137.044 55.9008 147.851 52 153L52 154L70 154L71 149C61.9249 154.708 57.0084 152.917 57 142L67 144L67 140L57 141L57 132L69 134C67.8963 128.849 57.4054 131 53 131z"/>
<path style="fill:#a5bdd3; stroke:none;" d="M69 131L68 136L69 131z"/>
<path style="fill:#50647b; stroke:none;" d="M87 131L86 133L87 131z"/>
<path style="fill:#102b4b; stroke:none;" d="M93 153L93 154C106.824 149.99 91.4674 142.024 89.3272 136.835C86.7911 130.686 94.9449 133.543 97 136L98 136L98 131C96.0043 131.105 93.9883 130.977 91.9992 131.108C75.5693 132.194 98.8289 147.023 93 153z"/>
<path style="fill:#50647b; stroke:none;" d="M95.6667 131.333L96.3333 131.667L95.6667 131.333z"/>
<path style="fill:#a5bdd3; stroke:none;" d="M119 131L120 132L119 131z"/>
<path style="fill:#50647b; stroke:none;" d="M120 131L122 133L120 131z"/>
<path style="fill:#102b4b; stroke:none;" d="M121 131L121 132L124 132L121 131M126 131L126 132C134.801 136.339 134.801 148.661 126 153L126 154C138.92 151.391 138.92 133.609 126 131z"/>
<path style="fill:#50647b; stroke:none;" d="M129 131L130 132L129 131z"/>
<path style="fill:#a5bdd3; stroke:none;" d="M130 131L131 132L130 131M148 131L149 132L148 131z"/>
<path style="fill:#50647b; stroke:none;" d="M149 131L149 132L152 133L149 131z"/>
<path style="fill:#102b4b; stroke:none;" d="M151 131C153.565 141.773 148.763 153.862 164 154L164 153C154.457 152.279 151.727 138.96 157 132L151 131z"/>
<path style="fill:#50647b; stroke:none;" d="M157 131L158 132L157 131z"/>
<path style="fill:#a5bdd3; stroke:none;" d="M158 131L159 132L158 131M164 131L165 132L164 131z"/>
<path style="fill:#50647b; stroke:none;" d="M165 131L166 132L165 131z"/>
<path style="fill:#102b4b; stroke:none;" d="M166 131L166 132C170.261 137.624 168.145 147.283 165 153C171.671 148.665 168.098 137.849 171 131L166 131z"/>
<path style="fill:#50647b; stroke:none;" d="M171 131L172 132L171 131z"/>
<path style="fill:#a5bdd3; stroke:none;" d="M172 131L173 132L172 131M184 131L185 132L184 131z"/>
<path style="fill:#50647b; stroke:none;" d="M185 131L186 132L185 131z"/>
<path style="fill:#102b4b; stroke:none;" d="M186 131C188.986 138.046 188.986 146.954 186 154L193 154L193 153L191 143L206 154L206 153L197 142C201.866 140.554 204.412 135.361 198.89 132.318C195.188 130.277 190.071 131 186 131z"/>
<path style="fill:#50647b; stroke:none;" d="M197.667 131.333L198.333 131.667L197.667 131.333z"/>
<path style="fill:#a5bdd3; stroke:none;" d="M199 131L200 132L199 131M225 131L226 132L225 131z"/>
<path style="fill:#102b4b; stroke:none;" d="M234 154L234 153C213.718 151.89 226.738 122.217 238 137L239 137L239 131C233.781 131.583 227.582 129.666 223.214 133.434C212.235 142.903 223.241 153.969 234 154z"/>
<path style="fill:#50647b; stroke:none;" d="M235 131L236 132L235 131z"/>
<path style="fill:#a5bdd3; stroke:none;" d="M236 131L237 132L236 131z"/>
<path style="fill:#50647b; stroke:none;" d="M237 131L238 132L237 131M252.667 131.333L253.333 131.667L252.667 131.333z"/>
<path style="fill:#102b4b; stroke:none;" d="M254 131C255.439 137.044 256.901 147.851 253 153L253 154L271 154L272 149L271 149C259.15 161.415 252.868 137.641 268 144L268 140L258 141C258.1 132.557 262.494 130.82 270 134C268.896 128.849 258.405 131 254 131z"/>
<path style="fill:#50647b; stroke:none;" d="M270 131L269 135L270 131z"/>
<path style="fill:#a5bdd3; stroke:none;" d="M19 132L20 133L19 132M24 132L24 133L28 133L24 132z"/>
<path style="fill:#50647b; stroke:none;" d="M28 132L29 133L28 132z"/>
<path style="fill:#a5bdd3; stroke:none;" d="M33 132L34 133L33 132M53 132L54 133L53 132z"/>
<path style="fill:#50647b; stroke:none;" d="M57.3333 132.667L57.6667 133.333L57.3333 132.667z"/>
<path style="fill:#a5bdd3; stroke:none;" d="M58 132L58 133L66 133L58 132z"/>
<path style="fill:#50647b; stroke:none;" d="M66 132L67 133L66 132z"/>
<path style="fill:#a5bdd3; stroke:none;" d="M89 132L90 133L89 132M93 132L94 133L93 132z"/>
<path style="fill:#50647b; stroke:none;" d="M94 132L95 133L94 132z"/>
<path style="fill:#a5bdd3; stroke:none;" d="M98 132L98 135L99 135L98 132z"/>
<path style="fill:#50647b; stroke:none;" d="M118 132L115 136L118 132z"/>
<path style="fill:#102b4b; stroke:none;" d="M124 154L124 153C114.791 148.46 117.174 139.488 121 132C110.505 137.044 112.763 151.731 124 154z"/>
<path style="fill:#a5bdd3; stroke:none;" d="M122 132L123 133L122 132z"/>
<path style="fill:#feffff; stroke:none;" d="M123.055 132.786C114.669 135.689 116.934 155.679 126.945 152.214C135.331 149.311 133.066 129.321 123.055 132.786z"/>
<path style="fill:#a5bdd3; stroke:none;" d="M127 132L128 133L127 132z"/>
<path style="fill:#50647b; stroke:none;" d="M128 132L129 133L128 132M131 132L132 133L131 132M155 132L156 133L155 132M167 132L168 133L167 132M191 132L192 133L191 132z"/>
<path style="fill:#a5bdd3; stroke:none;" d="M192 132L192 133L196 133L192 132z"/>
<path style="fill:#50647b; stroke:none;" d="M196 132L197 133L196 132M200 132L201 133L200 132z"/>
<path style="fill:#a5bdd3; stroke:none;" d="M223 132L224 133L223 132z"/>
<path style="fill:#50647b; stroke:none;" d="M227 132L228 133L227 132z"/>
<path style="fill:#a5bdd3; stroke:none;" d="M228 132L229 133L228 132M233 132L234 133L233 132z"/>
<path style="fill:#50647b; stroke:none;" d="M234 132L235 133L234 132z"/>
<path style="fill:#a5bdd3; stroke:none;" d="M254 132L255 133L254 132M259 132L259 133L267 133L259 132z"/>
<path style="fill:#50647b; stroke:none;" d="M267 132L268 133L267 132M23 133L23 142L24 142L23 133z"/>
<path style="fill:#feffff; stroke:none;" d="M24 133L24 142C32.3811 140.657 33.0829 133.297 24 133z"/>
<path style="fill:#50647b; stroke:none;" d="M30 133L31 134L30 133z"/>
<path style="fill:#a5bdd3; stroke:none;" d="M34 133L35 134L34 133M67 133L68 134L67 133M85 133L86 134L85 133M88 133L89 134L88 133M95 133L96 134L95 133M120 133L121 134L120 133z"/>
<path style="fill:#50647b; stroke:none;" d="M129 133L130 134L129 133M132 133L133 134L132 133z"/>
<path style="fill:#a5bdd3; stroke:none;" d="M151 133L151 146L152 146L151 133M155 133L155 148L156 148L155 133M167.333 133.667L167.667 134.333L167.333 133.667z"/>
<path style="fill:#50647b; stroke:none;" d="M169.333 133.667L169.667 134.333L169.333 133.667M187 133L188 134L187 133z"/>
<path style="fill:#feffff; stroke:none;" d="M191 133L191 142C199.604 140.629 200.313 133.303 191 133z"/>
<path style="fill:#a5bdd3; stroke:none;" d="M197 133L198 134L197 133z"/>
<path style="fill:#50647b; stroke:none;" d="M201 133L202 134L201 133z"/>
<path style="fill:#a5bdd3; stroke:none;" d="M222 133L223 134L222 133M226 133L227 134L226 133M235 133L236 134L235 133z"/>
<path style="fill:#50647b; stroke:none;" d="M258 133L258 141L259 141L258 133M20 134L20 151L21 151L20 134M31 134L32 135L31 134z"/>
<path style="fill:#a5bdd3; stroke:none;" d="M57 134L57 141L58 141L57 134z"/>
<path style="fill:#50647b; stroke:none;" d="M68 134L69 135L68 134M85 134L86 135L85 134M96 134L97 135L96 134M119 134L120 135L119 134M130 134L131 135L130 134M133 134L134 135L133 134z"/>
<path style="fill:#a5bdd3; stroke:none;" d="M187 134L187 150L188 150L187 134M198 134L199 135L198 134M202 134L203 135L202 134M221 134L222 135L221 134M225 134L226 135L225 134M236 134L237 135L236 134M31 135L32 136L31 135M35 135L36 136L35 135z"/>
<path style="fill:#50647b; stroke:none;" d="M98 135L98 138L99 138L98 135z"/>
<path style="fill:#a5bdd3; stroke:none;" d="M134 135L135 136L134 135M169 135L169 149L170 149L169 135z"/>
<path style="fill:#50647b; stroke:none;" d="M202 135L203 136L202 135z"/>
<path style="fill:#a5bdd3; stroke:none;" d="M220 135L221 136L220 135M224 135L225 136L224 135M237 135L238 136L237 135M269.667 135.333L270.333 135.667L269.667 135.333z"/>
<path style="fill:#50647b; stroke:none;" d="M35 136L35 139L36 139L35 136z"/>
<path style="fill:#a5bdd3; stroke:none;" d="M88 136L89 137L88 136M97.3333 136.667L97.6667 137.333L97.3333 136.667z"/>
<path style="fill:#50647b; stroke:none;" d="M118 136L119 137L118 136M131 136L132 137L131 136M199 136L200 137L199 136M220 136L221 137L220 136M114.333 137.667L114.667 138.333L114.333 137.667z"/>
<path style="fill:#a5bdd3; stroke:none;" d="M118 137L119 138L118 137M131 137L132 138L131 137z"/>
<path style="fill:#50647b; stroke:none;" d="M135.333 137.667L135.667 138.333L135.333 137.667z"/>
<path style="fill:#a5bdd3; stroke:none;" d="M219 137L220 138L219 137z"/>
<path style="fill:#50647b; stroke:none;" d="M223 137L224 138L223 137M238 137L239 138L238 137z"/>
<path style="fill:#a5bdd3; stroke:none;" d="M31 138L32 139L31 138M66 138L66 146C68.5542 143.768 68.5542 140.232 66 138z"/>
<path style="fill:#50647b; stroke:none;" d="M85 138L86 139L85 138M89 138L90 139L89 138M202 138L203 139L202 138M219 138L220 139L219 138z"/>
<path style="fill:#a5bdd3; stroke:none;" d="M223 138L224 139L223 138M267 138L268 139L267 138z"/>
<path style="fill:#50647b; stroke:none;" d="M268 138L268 146L269 146L268 138M31 139L32 140L31 139z"/>
<path style="fill:#a5bdd3; stroke:none;" d="M35 139L36 140L35 139z"/>
<path style="fill:#50647b; stroke:none;" d="M66 139L67 140L66 139z"/>
<path style="fill:#a5bdd3; stroke:none;" d="M85 139L86 140L85 139M91 139L92 140L91 139z"/>
<path style="fill:#50647b; stroke:none;" d="M117 139L117 146L118 146L117 139M132 139L132 146L133 146L132 139z"/>
<path style="fill:#a5bdd3; stroke:none;" d="M198 139L199 140L198 139M202 139L203 140L202 139z"/>
<path style="fill:#50647b; stroke:none;" d="M30 140L31 141L30 140z"/>
<path style="fill:#a5bdd3; stroke:none;" d="M34 140L35 141L34 140M65 140L66 141L65 140M86 140L87 141L86 140z"/>
<path style="fill:#50647b; stroke:none;" d="M92 140L93 141L92 140z"/>
<path style="fill:#a5bdd3; stroke:none;" d="M93 140L94 141L93 140M113 140L113 145L114 145L113 140M136 140L136 145L137 145L136 140M197 140L198 141L197 140z"/>
<path style="fill:#50647b; stroke:none;" d="M201 140L202 141L201 140z"/>
<path style="fill:#a5bdd3; stroke:none;" d="M266 140L267 141L266 140M27 141L28 142L27 141z"/>
<path style="fill:#50647b; stroke:none;" d="M28 141L29 142L28 141z"/>
<path style="fill:#a5bdd3; stroke:none;" d="M33 141L34 142L33 141M87 141L88 142L87 141M94 141L95 142L94 141M194.667 141.333L195.333 141.667L194.667 141.333z"/>
<path style="fill:#50647b; stroke:none;" d="M196 141L197 142L196 141M200 141L201 142L200 141M30 142L31 143L30 142z"/>
<path style="fill:#a5bdd3; stroke:none;" d="M31 142L32 143L31 142z"/>
<path style="fill:#50647b; stroke:none;" d="M57 142L57 143L65 143L57 142M89 142L90 143L89 142M95 142L96 143L95 142z"/>
<path style="fill:#a5bdd3; stroke:none;" d="M96 142L97 143L96 142z"/>
<path style="fill:#50647b; stroke:none;" d="M197 142L198 143L197 142z"/>
<path style="fill:#a5bdd3; stroke:none;" d="M198 142L199 143L198 142M218 142L219 143L218 142z"/>
<path style="fill:#50647b; stroke:none;" d="M259 142L259 143L266 143L259 142M23 143L23 151L24 151L23 143z"/>
<path style="fill:#a5bdd3; stroke:none;" d="M24.6667 143.333L25.3333 143.667L24.6667 143.333M57 143L57 151L58 151L57 143M65 143L66 144L65 143M90 143L91 144L90 143M97 143L98 144L97 143M191.667 143.333L192.333 143.667L191.667 143.333z"/>
<path style="fill:#50647b; stroke:none;" d="M193 143L194 144L193 143z"/>
<path style="fill:#a5bdd3; stroke:none;" d="M197 143L198 144L197 143z"/>
<path style="fill:#50647b; stroke:none;" d="M258 143L258 152L259 152L258 143z"/>
<path style="fill:#a5bdd3; stroke:none;" d="M26 144L27 145L26 144z"/>
<path style="fill:#50647b; stroke:none;" d="M30 144L31 145L30 144M66 144L67 145L66 144M92 144L93 145L92 144z"/>
<path style="fill:#a5bdd3; stroke:none;" d="M98 144L99 145L98 144M267.333 144.667L267.667 145.333L267.333 144.667z"/>
<path style="fill:#50647b; stroke:none;" d="M27 145L28 146L27 145M31 145L32 146L31 145z"/>
<path style="fill:#a5bdd3; stroke:none;" d="M93 145L94 146L93 145z"/>
<path style="fill:#50647b; stroke:none;" d="M98 145L99 146L98 145z"/>
<path style="fill:#a5bdd3; stroke:none;" d="M194 145L195 146L194 145z"/>
<path style="fill:#50647b; stroke:none;" d="M198 145L199 146L198 145M28 146L29 147L28 146z"/>
<path style="fill:#a5bdd3; stroke:none;" d="M32 146L33 147L32 146M94 146L95 147L94 146M99 146L99 150L100 150L99 146z"/>
<path style="fill:#50647b; stroke:none;" d="M114 146L115 147L114 146M135 146L136 147L135 146z"/>
<path style="fill:#a5bdd3; stroke:none;" d="M195 146L196 147L195 146z"/>
<path style="fill:#50647b; stroke:none;" d="M199 146L200 147L199 146M219 146L220 147L219 146z"/>
<path style="fill:#a5bdd3; stroke:none;" d="M223 146L224 147L223 146M33 147L34 148L33 147z"/>
<path style="fill:#50647b; stroke:none;" d="M84 147L85 148L84 147z"/>
<path style="fill:#a5bdd3; stroke:none;" d="M95 147L96 148L95 147M114 147L115 148L114 147M118 147L119 148L118 147M131 147L132 148L131 147M135 147L136 148L135 147M167.333 147.667L167.667 148.333L167.333 147.667z"/>
<path style="fill:#50647b; stroke:none;" d="M196 147L197 148L196 147z"/>
<path style="fill:#a5bdd3; stroke:none;" d="M200 147L201 148L200 147M219 147L220 148L219 147z"/>
<path style="fill:#50647b; stroke:none;" d="M223 147L224 148L223 147z"/>
<path style="fill:#a5bdd3; stroke:none;" d="M29 148L30 149L29 148z"/>
<path style="fill:#50647b; stroke:none;" d="M70 148L71 149L70 148z"/>
<path style="fill:#a5bdd3; stroke:none;" d="M71 148L72 149L71 148z"/>
<path style="fill:#102b4b; stroke:none;" d="M84 148L85 154L88 153L84 148z"/>
<path style="fill:#a5bdd3; stroke:none;" d="M85 148L86 149L85 148z"/>
<path style="fill:#50647b; stroke:none;" d="M118 148L119 149L118 148M131 148L132 149L131 148M155 148L156 149L155 148z"/>
<path style="fill:#a5bdd3; stroke:none;" d="M201 148L202 149L201 148z"/>
<path style="fill:#50647b; stroke:none;" d="M271 148L272 149L271 148z"/>
<path style="fill:#a5bdd3; stroke:none;" d="M272 148L273 149L272 148M30 149L31 150L30 149z"/>
<path style="fill:#50647b; stroke:none;" d="M34 149L35 150L34 149z"/>
<path style="fill:#a5bdd3; stroke:none;" d="M69 149L70 150L69 149z"/>
<path style="fill:#50647b; stroke:none;" d="M84.3333 149.667L84.6667 150.333L84.3333 149.667z"/>
<path style="fill:#a5bdd3; stroke:none;" d="M115 149L116 150L115 149M134 149L135 150L134 149z"/>
<path style="fill:#50647b; stroke:none;" d="M152 149L153 150L152 149M167 149L168 150L167 149z"/>
<path style="fill:#a5bdd3; stroke:none;" d="M197 149L198 150L197 149M202 149L203 150L202 149M220 149L221 150L220 149z"/>
<path style="fill:#50647b; stroke:none;" d="M224 149L225 150L224 149z"/>
<path style="fill:#a5bdd3; stroke:none;" d="M239 149L236 151L236 152L237 153L238 153L239 149M270 149L271 150L270 149z"/>
<path style="fill:#50647b; stroke:none;" d="M31 150L32 151L31 150M35 150L36 151L35 150M70 150L71 151L70 150M86 150L87 151L86 150z"/>
<path style="fill:#a5bdd3; stroke:none;" d="M95 150L96 151L95 150z"/>
<path style="fill:#50647b; stroke:none;" d="M116 150L117 151L116 150M119 150L120 151L119 150M130 150L131 151L130 150M133 150L134 151L133 150z"/>
<path style="fill:#a5bdd3; stroke:none;" d="M152 150L153 151L152 150M156 150L157 151L156 150M166 150L167 151L166 150M168 150L169 151L168 150z"/>
<path style="fill:#50647b; stroke:none;" d="M187.333 150.667L187.667 151.333L187.333 150.667z"/>
<path style="fill:#a5bdd3; stroke:none;" d="M198 150L199 151L198 150z"/>
<path style="fill:#50647b; stroke:none;" d="M221 150L222 151L221 150z"/>
<path style="fill:#a5bdd3; stroke:none;" d="M225 150L226 151L225 150z"/>
<path style="fill:#102b4b; stroke:none;" d="M238 150L239 151L238 150z"/>
<path style="fill:#50647b; stroke:none;" d="M271.333 150.667L271.667 151.333L271.333 150.667z"/>
<path style="fill:#a5bdd3; stroke:none;" d="M36 151L37 152L36 151M53 151L54 152L53 151z"/>
<path style="fill:#50647b; stroke:none;" d="M57 151L58 152L57 151z"/>
<path style="fill:#a5bdd3; stroke:none;" d="M67 151L68 152L67 151M70 151L71 152L70 151M84 151L84 154L85 154L84 151M87 151L88 152L87 151z"/>
<path style="fill:#50647b; stroke:none;" d="M95 151L96 152L95 151z"/>
<path style="fill:#a5bdd3; stroke:none;" d="M98 151L99 152L98 151z"/>
<path style="fill:#50647b; stroke:none;" d="M117 151L118 152L117 151M120 151L121 152L120 151M129 151L130 152L129 151M132 151L133 152L132 151M153 151L154 152L153 151z"/>
<path style="fill:#a5bdd3; stroke:none;" d="M157 151L158 152L157 151M165 151L166 152L165 151M191 151L192 152L191 151z"/>
<path style="fill:#50647b; stroke:none;" d="M199 151L200 152L199 151M203 151L204 152L203 151M222 151L223 152L222 151M226 151L227 152L226 151z"/>
<path style="fill:#102b4b; stroke:none;" d="M237 151L238 152L237 151z"/>
<path style="fill:#a5bdd3; stroke:none;" d="M268 151L269 152L268 151z"/>
<path style="fill:#50647b; stroke:none;" d="M269 151L270 152L269 151z"/>
<path style="fill:#a5bdd3; stroke:none;" d="M19 152L20 153L19 152M24 152L25 153L24 152M32 152L33 153L32 152M37 152L38 153L37 152z"/>
<path style="fill:#50647b; stroke:none;" d="M53 152L54 153L53 152z"/>
<path style="fill:#a5bdd3; stroke:none;" d="M58 152L58 153L65 153L58 152z"/>
<path style="fill:#50647b; stroke:none;" d="M65.6667 152.333L66.3333 152.667L65.6667 152.333M88.3333 152.667L88.6667 153.333L88.3333 152.667z"/>
<path style="fill:#a5bdd3; stroke:none;" d="M89 152L90 153L89 152z"/>
<path style="fill:#50647b; stroke:none;" d="M94 152L95 153L94 152M97 152L98 153L97 152M118 152L119 153L118 152M121 152L122 153L121 152z"/>
<path style="fill:#a5bdd3; stroke:none;" d="M122 152L123 153L122 152M127 152L128 153L127 152z"/>
<path style="fill:#50647b; stroke:none;" d="M128 152L129 153L128 152M131 152L132 153L131 152M154 152L155 153L154 152M158 152L159 153L158 152z"/>
<path style="fill:#a5bdd3; stroke:none;" d="M159 152L160 153L159 152M162.667 152.333L163.333 152.667L162.667 152.333z"/>
<path style="fill:#50647b; stroke:none;" d="M164.333 152.667L164.667 153.333L164.333 152.667M166 152L167 153L166 152M191 152L192 153L191 152M200 152L201 153L200 152M204 152L205 153L204 152z"/>
<path style="fill:#a5bdd3; stroke:none;" d="M223 152L224 153L223 152z"/>
<path style="fill:#50647b; stroke:none;" d="M228 152L229 153L228 152z"/>
<path style="fill:#a5bdd3; stroke:none;" d="M229 152L230 153L229 152M232.667 152.333L233.333 152.667L232.667 152.333z"/>
<path style="fill:#50647b; stroke:none;" d="M234.333 152.667L234.667 153.333L234.333 152.667z"/>
<path style="fill:#102b4b; stroke:none;" d="M235.667 152.333L236.333 152.667L235.667 152.333z"/>
<path style="fill:#a5bdd3; stroke:none;" d="M254 152L255 153L254 152z"/>
<path style="fill:#50647b; stroke:none;" d="M259 152L260 153L259 152z"/>
<path style="fill:#a5bdd3; stroke:none;" d="M260 152L260 153L266 153L260 152z"/>
<path style="fill:#50647b; stroke:none;" d="M266.667 152.333L267.333 152.667L266.667 152.333z"/>
<path style="fill:#a5bdd3; stroke:none;" d="M271 152L272 153L271 152z"/>
<path style="fill:#50647b; stroke:none;" d="M17.6667 153.333L18.3333 153.667L17.6667 153.333M25.6667 153.333L26.3333 153.667L25.6667 153.333z"/>
<path style="fill:#a5bdd3; stroke:none;" d="M33 153L34 154L33 153M39 153L40 154L39 153z"/>
<path style="fill:#50647b; stroke:none;" d="M51 153L52 154L51 153z"/>
<path style="fill:#a5bdd3; stroke:none;" d="M86.6667 153.333L87.3333 153.667L86.6667 153.333z"/>
<path style="fill:#102b4b; stroke:none;" d="M89.6667 153.333L90.3333 153.667L89.6667 153.333z"/>
<path style="fill:#50647b; stroke:none;" d="M91.6667 153.333L92.3333 153.667L91.6667 153.333z"/>
<path style="fill:#a5bdd3; stroke:none;" d="M96 153L97 154L96 153z"/>
<path style="fill:#50647b; stroke:none;" d="M120 153L121 154L120 153M124.667 153.333L125.333 153.667L124.667 153.333M129 153L130 154L129 153z"/>
<path style="fill:#a5bdd3; stroke:none;" d="M155 153L156 154L155 153z"/>
<path style="fill:#50647b; stroke:none;" d="M156 153L157 154L156 153z"/>
<path style="fill:#a5bdd3; stroke:none;" d="M165 153L166 154L165 153M184 153L185 154L184 153z"/>
<path style="fill:#50647b; stroke:none;" d="M185 153L186 154L185 153M193 153L194 154L193 153M206 153L207 154L206 153M225 153L226 154L225 153z"/>
<path style="fill:#a5bdd3; stroke:none;" d="M235 153L236 154L235 153z"/>
<path style="fill:#50647b; stroke:none;" d="M252 153L253 154L252 153z"/>
<path style="fill:#a5bdd3; stroke:none;" d="M85 154L86 155L85 154M90 154L90 155L95 155L90 154M122 154L122 155L128 155L122 154M158 154L158 155L163 155L158 154M228 154L228 155L233 155L228 154z"/>
</svg>
